<?xml version="1.0" encoding="UTF-8"?>
<!DOCTYPE svg PUBLIC "-//W3C//DTD SVG 1.1//EN" "http://www.w3.org/Graphics/SVG/1.1/DTD/svg11.dtd">
<svg xmlns="http://www.w3.org/2000/svg" version="1.1" width="500px" height="500px" style="shape-rendering:geometricPrecision; text-rendering:geometricPrecision; image-rendering:optimizeQuality; fill-rule:evenodd; clip-rule:evenodd" xmlns:xlink="http://www.w3.org/1999/xlink">
<g><path style="opacity:1" fill="#4f43e2" d="M 258.5,137.5 C 269.192,138.198 280.026,138.865 291,139.5C 291.772,139.355 292.439,139.022 293,138.5C 293.982,141.294 295.149,143.961 296.5,146.5C 295.178,146.33 294.011,146.663 293,147.5C 292.5,160.829 292.333,174.163 292.5,187.5C 292.5,189.5 291.5,190.5 289.5,190.5C 274.485,190.833 259.485,190.499 244.5,189.5C 243.423,188.295 242.09,187.628 240.5,187.5C 239.351,172.908 239.185,158.241 240,143.5C 240.278,142.584 240.778,141.918 241.5,141.5C 242.708,140.766 244.041,140.433 245.5,140.5C 246.075,136.845 245.075,133.845 242.5,131.5C 239.61,125.371 236.943,119.038 234.5,112.5C 223.515,111.668 212.515,111.168 201.5,111C 199.676,110.34 198.343,109.173 197.5,107.5C 196.522,86.2123 196.189,64.879 196.5,43.5C 197.595,40.2652 199.928,38.4318 203.5,38C 222.167,37.3333 240.833,37.3333 259.5,38C 263.896,38.7297 266.73,41.2297 268,45.5C 268.667,64.8333 268.667,84.1667 268,103.5C 266.923,106.913 264.756,109.413 261.5,111C 257.129,111.172 252.796,111.672 248.5,112.5C 252.231,120.698 255.565,129.031 258.5,137.5 Z"/></g>
<g><path style="opacity:0.98" fill="#5348c7" d="M 196.5,43.5 C 196.189,64.879 196.522,86.2123 197.5,107.5C 196.21,106.942 195.377,105.942 195,104.5C 194.333,84.8333 194.333,65.1667 195,45.5C 195.278,44.5842 195.778,43.9175 196.5,43.5 Z"/></g>
<g><path style="opacity:0.929" fill="#493cb4" d="M 307.5,54.5 C 305.833,56.8333 303.833,58.8333 301.5,60.5C 302.5,57.5 304.5,55.5 307.5,54.5 Z"/></g>
<g><path style="opacity:1" fill="#4f43e3" d="M 366.5,54.5 C 366.859,56.7659 366.192,58.5993 364.5,60C 367.047,61.4406 369.547,61.9406 372,61.5C 372.833,80.1756 372.666,98.8423 371.5,117.5C 370.534,115.604 370.201,113.604 370.5,111.5C 369.127,111.343 367.793,111.51 366.5,112C 370.057,113.67 370.391,115.836 367.5,118.5C 368.249,120.036 369.249,121.369 370.5,122.5C 369.675,123.386 368.675,123.719 367.5,123.5C 367.5,124.5 367.5,125.5 367.5,126.5C 350.799,125.848 334.466,126.515 318.5,128.5C 318.027,129.906 317.027,130.573 315.5,130.5C 313.7,129.527 311.866,128.527 310,127.5C 309.751,128.624 309.251,129.624 308.5,130.5C 306.483,131.174 304.817,132.341 303.5,134C 304.406,135.699 304.739,137.533 304.5,139.5C 302.35,139.095 300.35,138.595 298.5,138C 300.211,139.133 300.711,140.633 300,142.5C 298.562,141.1 297.729,139.433 297.5,137.5C 292.516,137.856 291.516,136.189 294.5,132.5C 296.839,129.494 299.506,126.827 302.5,124.5C 302,123.5 301.5,122.5 301,121.5C 300.171,100.996 300.337,80.6625 301.5,60.5C 303.833,58.8333 305.833,56.8333 307.5,54.5C 327.167,53.1667 346.833,53.1667 366.5,54.5 Z"/></g>
<g><path style="opacity:0.951" fill="#4a41c8" d="M 366.5,54.5 C 369.275,55.312 371.442,56.9787 373,59.5C 374.103,69.9529 374.603,80.4529 374.5,91C 374.333,99.8333 374.167,108.667 374,117.5C 373.758,122.013 371.592,125.013 367.5,126.5C 367.5,125.5 367.5,124.5 367.5,123.5C 368.675,123.719 369.675,123.386 370.5,122.5C 369.249,121.369 368.249,120.036 367.5,118.5C 370.391,115.836 370.057,113.67 366.5,112C 367.793,111.51 369.127,111.343 370.5,111.5C 370.201,113.604 370.534,115.604 371.5,117.5C 372.666,98.8423 372.833,80.1756 372,61.5C 369.547,61.9406 367.047,61.4406 364.5,60C 366.192,58.5993 366.859,56.7659 366.5,54.5 Z"/></g>
<g><path style="opacity:0.761" fill="#5148cf" d="M 138.5,82.5 C 117.603,80.594 96.6033,79.9274 75.5,80.5C 75.5,81.5 75.5,82.5 75.5,83.5C 73.8333,83.5 72.1667,83.5 70.5,83.5C 71.5736,82.1154 72.9069,80.9487 74.5,80C 94.8333,79.3333 115.167,79.3333 135.5,80C 136.942,80.3768 137.942,81.2101 138.5,82.5 Z"/></g>
<g><path style="opacity:0.996" fill="#5145c7" d="M 70.5,83.5 C 70.5,104.833 70.5,126.167 70.5,147.5C 72.143,147.48 73.4763,148.147 74.5,149.5C 75.2811,148.271 75.7811,146.938 76,145.5C 76.8699,146.108 77.3699,146.941 77.5,148C 76.993,150.541 76.3263,153.041 75.5,155.5C 74.5832,156.127 73.5832,156.461 72.5,156.5C 73.2899,155.206 74.2899,154.039 75.5,153C 72.6667,151.5 70.5,149.333 69,146.5C 68.3333,126.167 68.3333,105.833 69,85.5C 69.2784,84.5842 69.7784,83.9175 70.5,83.5 Z"/></g>
<g><path style="opacity:0.771" fill="#5249d1" d="M 447.5,120.5 C 445.74,120.931 443.74,120.931 441.5,120.5C 442.853,119.476 443.52,118.143 443.5,116.5C 428.119,116.198 412.785,116.531 397.5,117.5C 397.611,116.883 397.944,116.383 398.5,116C 413.833,115.333 429.167,115.333 444.5,116C 446.141,117.129 447.141,118.629 447.5,120.5 Z"/></g>
<g><path style="opacity:1" fill="#5044e2" d="M 447.5,120.5 C 448.661,134.994 448.828,149.661 448,164.5C 446.854,166.644 445.354,168.477 443.5,170C 448.391,180.281 453.391,190.448 458.5,200.5C 458.295,203.114 458.295,205.448 458.5,207.5C 459.086,207.291 459.586,206.957 460,206.5C 468.429,207.86 476.929,209.193 485.5,210.5C 486.499,226.152 486.833,241.819 486.5,257.5C 470.594,257.929 454.594,258.096 438.5,258C 438,257.5 437.5,257 437,256.5C 437.152,242.463 436.319,228.797 434.5,215.5C 434.5,214.5 434.5,213.5 434.5,212.5C 438.15,209.238 442.483,207.905 447.5,208.5C 447.923,206.219 447.256,204.552 445.5,203.5C 439.484,192.132 433.484,180.799 427.5,169.5C 417.63,168.786 407.63,168.12 397.5,167.5C 396.21,166.942 395.377,165.942 395,164.5C 394.333,149.833 394.333,135.167 395,120.5C 395.377,119.058 396.21,118.058 397.5,117.5C 412.785,116.531 428.119,116.198 443.5,116.5C 443.52,118.143 442.853,119.476 441.5,120.5C 443.74,120.931 445.74,120.931 447.5,120.5 Z"/></g>
<g><path style="opacity:0.776" fill="#574ec5" d="M 367.5,126.5 C 351.265,127.18 334.931,127.847 318.5,128.5C 334.466,126.515 350.799,125.848 367.5,126.5 Z"/></g>
<g><path style="opacity:0.18" fill="#4e47c4" d="M 242.5,131.5 C 245.075,133.845 246.075,136.845 245.5,140.5C 244.041,140.433 242.708,140.766 241.5,141.5C 242.174,139.976 243.174,138.642 244.5,137.5C 243.628,135.55 242.961,133.55 242.5,131.5 Z"/></g>
<g><path style="opacity:1" fill="#5044d6" d="M 315.5,130.5 C 309.758,136.578 303.425,141.912 296.5,146.5C 295.149,143.961 293.982,141.294 293,138.5C 292.439,139.022 291.772,139.355 291,139.5C 280.026,138.865 269.192,138.198 258.5,137.5C 268.506,137.666 278.506,137.5 288.5,137C 290.114,134.873 292.114,133.373 294.5,132.5C 291.516,136.189 292.516,137.856 297.5,137.5C 297.729,139.433 298.562,141.1 300,142.5C 300.711,140.633 300.211,139.133 298.5,138C 300.35,138.595 302.35,139.095 304.5,139.5C 304.739,137.533 304.406,135.699 303.5,134C 304.817,132.341 306.483,131.174 308.5,130.5C 309.251,129.624 309.751,128.624 310,127.5C 311.866,128.527 313.7,129.527 315.5,130.5 Z"/></g>
<g><path style="opacity:0.509" fill="#564cc5" d="M 133.5,152.5 C 119.673,153.331 105.673,153.831 91.5,154C 90.9341,154.995 90.2674,155.828 89.5,156.5C 89.33,155.178 89.6634,154.011 90.5,153C 104.829,152.5 119.163,152.333 133.5,152.5 Z"/></g>
<g><path style="opacity:0.945" fill="#473ec9" d="M 296.5,146.5 C 295.878,147.627 295.045,148.627 294,149.5C 293.831,162.34 293.331,175.007 292.5,187.5C 292.333,174.163 292.5,160.829 293,147.5C 294.011,146.663 295.178,146.33 296.5,146.5 Z"/></g>
<g><path style="opacity:0.161" fill="#4f44a5" d="M 86.5,159.5 C 86.573,161.027 85.9063,162.027 84.5,162.5C 84.427,160.973 85.0937,159.973 86.5,159.5 Z"/></g>
<g><path style="opacity:0.77" fill="#5248d2" d="M 201.5,165.5 C 181.202,164.19 160.868,164.19 140.5,165.5C 142.807,166.807 142.64,168.14 140,169.5C 138.739,169.241 137.739,168.574 137,167.5C 136.292,168.381 135.458,169.047 134.5,169.5C 135.254,166.909 136.921,165.076 139.5,164C 159.833,163.333 180.167,163.333 200.5,164C 201.056,164.383 201.389,164.883 201.5,165.5 Z"/></g>
<g><path style="opacity:0.758" fill="#544ac2" d="M 397.5,167.5 C 407.63,168.12 417.63,168.786 427.5,169.5C 417.828,169.666 408.161,169.5 398.5,169C 397.944,168.617 397.611,168.117 397.5,167.5 Z"/></g>
<g><path style="opacity:1" fill="#5044e3" d="M 201.5,165.5 C 203.752,165.916 205.252,167.249 206,169.5C 206.498,172.482 206.665,175.482 206.5,178.5C 205.883,178.611 205.383,178.944 205,179.5C 204.333,191.5 204.333,203.5 205,215.5C 205.727,218.955 207.893,220.621 211.5,220.5C 212.58,222.045 212.58,223.545 211.5,225C 213.293,230.249 214.793,230.415 216,225.5C 218.844,226.553 221.677,228.386 224.5,231C 222.321,232.257 220.321,233.757 218.5,235.5C 218.167,235 217.833,234.5 217.5,234C 218.707,232.7 219.374,231.2 219.5,229.5C 215.892,230.801 212.559,232.468 209.5,234.5C 207.956,234.297 206.622,233.63 205.5,232.5C 203.851,234.995 201.517,236.495 198.5,237C 179.167,237.667 159.833,237.667 140.5,237C 139.058,236.623 138.058,235.79 137.5,234.5C 136.79,232.254 136.29,229.92 136,227.5C 135.667,228.167 135.333,228.833 135,229.5C 134.5,209.503 134.333,189.503 134.5,169.5C 135.458,169.047 136.292,168.381 137,167.5C 137.739,168.574 138.739,169.241 140,169.5C 142.64,168.14 142.807,166.807 140.5,165.5C 160.868,164.19 181.202,164.19 201.5,165.5 Z"/></g>
<g><path style="opacity:0.922" fill="#4d42b8" d="M 59.5,173.5 C 59.2283,176.732 57.5616,178.732 54.5,179.5C 56.177,177.46 57.8437,175.46 59.5,173.5 Z"/></g>
<g><path style="opacity:0.949" fill="#4a3fbc" d="M 240.5,187.5 C 242.09,187.628 243.423,188.295 244.5,189.5C 259.485,190.499 274.485,190.833 289.5,190.5C 274.339,191.661 259.006,191.828 243.5,191C 242.29,189.961 241.29,188.794 240.5,187.5 Z"/></g>
<g><path style="opacity:0.997" fill="#4e44c2" d="M 206.5,178.5 C 206.168,191.517 206.501,204.517 207.5,217.5C 208.901,218.521 210.235,219.521 211.5,220.5C 207.893,220.621 205.727,218.955 205,215.5C 204.333,203.5 204.333,191.5 205,179.5C 205.383,178.944 205.883,178.611 206.5,178.5 Z"/></g>
<g><path style="opacity:0.969" fill="#5146c5" d="M 53.5,179.5 C 41.0066,180.331 28.34,180.831 15.5,181C 14.6667,181.833 13.8333,182.667 13,183.5C 12.3333,198.5 12.3333,213.5 13,228.5C 13.5,229 14,229.5 14.5,230C 25.879,229.852 36.879,230.685 47.5,232.5C 37.1613,232.666 26.828,232.5 16.5,232C 14.6711,231.727 13.1711,230.893 12,229.5C 10.3666,214.593 10.0332,199.593 11,184.5C 11.7845,182.714 12.9512,181.214 14.5,180C 27.4957,179.5 40.4957,179.333 53.5,179.5 Z"/></g>
<g><path style="opacity:0.928" fill="#4b41c2" d="M 134.5,169.5 C 134.333,189.503 134.5,209.503 135,229.5C 135.333,228.833 135.667,228.167 136,227.5C 136.29,229.92 136.79,232.254 137.5,234.5C 134.258,232.97 132.758,230.304 133,226.5C 132.333,209.167 132.333,191.833 133,174.5C 133.198,172.618 133.698,170.952 134.5,169.5 Z"/></g>
<g><path style="opacity:0.962" fill="#4e42c9" d="M 445.5,203.5 C 447.256,204.552 447.923,206.219 447.5,208.5C 442.483,207.905 438.15,209.238 434.5,212.5C 434.859,210.629 435.859,209.129 437.5,208C 440.444,207.03 443.444,206.196 446.5,205.5C 446.137,204.817 445.804,204.15 445.5,203.5 Z"/></g>
<g><path style="opacity:1" fill="#5044e3" d="M 374.5,219.5 C 374.333,238.503 374.5,257.503 375,276.5C 375.383,277.056 375.883,277.389 376.5,277.5C 377.833,279.5 379.167,281.5 380.5,283.5C 380.29,286.97 379.123,286.97 377,283.5C 376.985,285.791 376.818,287.958 376.5,290C 374.866,290.494 373.199,290.66 371.5,290.5C 370.566,289.432 370.232,288.099 370.5,286.5C 350.5,286.5 330.5,286.5 310.5,286.5C 309.412,285 308.079,283.667 306.5,282.5C 307.167,281.833 307.833,281.167 308.5,280.5C 306.993,279.261 305.826,279.595 305,281.5C 304.713,279.109 304.213,276.776 303.5,274.5C 304.426,258.866 304.593,243.199 304,227.5C 304.333,225.5 304.667,223.5 305,221.5C 306.471,223.872 307.637,223.872 308.5,221.5C 306.946,218.848 307.279,216.515 309.5,214.5C 329.093,213.347 348.76,213.18 368.5,214C 371.641,214.715 373.641,216.548 374.5,219.5 Z"/></g>
<g><path style="opacity:0.958" fill="#4e43bf" d="M 458.5,200.5 C 459.725,201.937 460.725,203.604 461.5,205.5C 468.811,206.331 476.144,206.831 483.5,207C 484.931,207.465 486.097,208.299 487,209.5C 488.12,217.594 488.62,225.76 488.5,234C 488.333,241.167 488.167,248.333 488,255.5C 487.722,256.416 487.222,257.082 486.5,257.5C 486.833,241.819 486.499,226.152 485.5,210.5C 476.929,209.193 468.429,207.86 460,206.5C 459.586,206.957 459.086,207.291 458.5,207.5C 458.295,205.448 458.295,203.114 458.5,200.5 Z"/></g>
<g><path style="opacity:0.737" fill="#5049af" d="M 230.5,229.5 C 243.327,228.34 256.327,228.173 269.5,229C 270.056,229.383 270.389,229.883 270.5,230.5C 269.5,230.5 268.5,230.5 267.5,230.5C 255.345,229.505 243.011,229.171 230.5,229.5 Z"/></g>
<g><path style="opacity:0.962" fill="#4f44c2" d="M 374.5,219.5 C 375.268,220.263 375.768,221.263 376,222.5C 376.5,240.83 376.667,259.164 376.5,277.5C 375.883,277.389 375.383,277.056 375,276.5C 374.5,257.503 374.333,238.503 374.5,219.5 Z"/></g>
<g><path style="opacity:1" fill="#4e43da" d="M 211.5,220.5 C 216.885,224.28 222.385,227.947 228,231.5C 228.708,230.619 229.542,229.953 230.5,229.5C 243.011,229.171 255.345,229.505 267.5,230.5C 255.5,230.5 243.5,230.5 231.5,230.5C 231.5,231.5 231.5,232.5 231.5,233.5C 230.127,233.343 228.793,233.51 227.5,234C 228.973,234.71 229.64,235.876 229.5,237.5C 225.881,237.044 223.548,238.544 222.5,242C 223.563,243.188 224.897,243.688 226.5,243.5C 226.5,242.167 226.5,240.833 226.5,239.5C 228.359,239.461 229.692,240.294 230.5,242C 228.893,243.049 228.227,244.549 228.5,246.5C 228.167,246.5 227.833,246.5 227.5,246.5C 227.158,245.662 226.492,245.328 225.5,245.5C 219.811,242.324 214.477,238.658 209.5,234.5C 212.559,232.468 215.892,230.801 219.5,229.5C 219.374,231.2 218.707,232.7 217.5,234C 217.833,234.5 218.167,235 218.5,235.5C 220.321,233.757 222.321,232.257 224.5,231C 221.677,228.386 218.844,226.553 216,225.5C 214.793,230.415 213.293,230.249 211.5,225C 212.58,223.545 212.58,222.045 211.5,220.5 Z"/></g>
<g><path style="opacity:0.99" fill="#5349cf" d="M 309.5,214.5 C 307.279,216.515 306.946,218.848 308.5,221.5C 307.637,223.872 306.471,223.872 305,221.5C 304.667,223.5 304.333,225.5 304,227.5C 304.593,243.199 304.426,258.866 303.5,274.5C 304.213,276.776 304.713,279.109 305,281.5C 305.826,279.595 306.993,279.261 308.5,280.5C 307.833,281.167 307.167,281.833 306.5,282.5C 308.079,283.667 309.412,285 310.5,286.5C 310.167,286.5 309.833,286.5 309.5,286.5C 306.572,285.409 304.406,283.409 303,280.5C 302.333,260.5 302.333,240.5 303,220.5C 304.406,217.591 306.572,215.591 309.5,214.5 Z"/></g>
<g><path style="opacity:0.786" fill="#534cc6" d="M 75.5,245.5 C 77.6,248.104 79.9334,250.604 82.5,253C 95.8333,253.333 109.167,253.667 122.5,254C 125.079,255.076 126.746,256.909 127.5,259.5C 125.66,257.832 123.66,256.332 121.5,255C 108.167,254.667 94.8333,254.333 81.5,254C 78.127,252.106 76.127,249.273 75.5,245.5 Z"/></g>
<g><path style="opacity:1" fill="#4f43e2" d="M 138.5,82.5 C 140.694,84.2214 141.861,86.5547 142,89.5C 142.667,107.5 142.667,125.5 142,143.5C 141.018,148.314 138.185,151.314 133.5,152.5C 119.163,152.333 104.829,152.5 90.5,153C 89.6634,154.011 89.33,155.178 89.5,156.5C 88.8333,157.833 87.8333,158.833 86.5,159.5C 85.0937,159.973 84.427,160.973 84.5,162.5C 77.9162,171.318 71.0829,179.985 64,188.5C 63.8071,202.033 63.3071,215.533 62.5,229C 66.6526,234.651 70.9859,240.151 75.5,245.5C 76.127,249.273 78.127,252.106 81.5,254C 94.8333,254.333 108.167,254.667 121.5,255C 123.66,256.332 125.66,257.832 127.5,259.5C 128.244,262.36 128.911,265.36 129.5,268.5C 128.443,283.902 128.443,299.402 129.5,315C 129.08,319.506 127.08,323.172 123.5,326C 103.565,327.63 83.5648,327.964 63.5,327C 61.1192,326.777 59.4525,325.61 58.5,323.5C 59.0081,320.824 59.1747,318.157 59,315.5C 58.0853,316.328 57.4186,317.328 57,318.5C 56.5,299.17 56.3334,279.836 56.5,260.5C 59.5225,260.895 60.5225,259.895 59.5,257.5C 60.1925,256.482 60.8592,255.482 61.5,254.5C 62.2625,253.732 63.2625,253.232 64.5,253C 58.969,245.977 53.3023,239.143 47.5,232.5C 36.879,230.685 25.879,229.852 14.5,230C 14,229.5 13.5,229 13,228.5C 12.3333,213.5 12.3333,198.5 13,183.5C 13.8333,182.667 14.6667,181.833 15.5,181C 28.34,180.831 41.0066,180.331 53.5,179.5C 53.8333,179.5 54.1667,179.5 54.5,179.5C 57.5616,178.732 59.2283,176.732 59.5,173.5C 63.5909,167.653 67.9242,161.987 72.5,156.5C 73.5832,156.461 74.5832,156.127 75.5,155.5C 76.3263,153.041 76.993,150.541 77.5,148C 77.3699,146.941 76.8699,146.108 76,145.5C 75.7811,146.938 75.2811,148.271 74.5,149.5C 73.4763,148.147 72.143,147.48 70.5,147.5C 70.5,126.167 70.5,104.833 70.5,83.5C 72.1667,83.5 73.8333,83.5 75.5,83.5C 75.5,82.5 75.5,81.5 75.5,80.5C 96.6033,79.9274 117.603,80.594 138.5,82.5 Z"/></g>
<g><path style="opacity:0.383" fill="#544eb0" d="M 225.5,245.5 C 226.492,245.328 227.158,245.662 227.5,246.5C 227.5,254.5 227.5,262.5 227.5,270.5C 226.806,262.266 226.139,253.933 225.5,245.5 Z"/></g>
<g><path style="opacity:0.923" fill="#4f46d1" d="M 434.5,215.5 C 436.319,228.797 437.152,242.463 437,256.5C 437.5,257 438,257.5 438.5,258C 454.594,258.096 470.594,257.929 486.5,257.5C 485.942,258.79 484.942,259.623 483.5,260C 468.5,260.667 453.5,260.667 438.5,260C 437.333,258.833 436.167,257.667 435,256.5C 434.5,242.837 434.333,229.171 434.5,215.5 Z"/></g>
<g><path style="opacity:0.957" fill="#4b40c8" d="M 227.5,246.5 C 227.833,246.5 228.167,246.5 228.5,246.5C 228.334,254.507 228.5,262.507 229,270.5C 231.106,272.291 233.606,272.958 236.5,272.5C 237.016,276.747 235.683,280.08 232.5,282.5C 233.212,280.072 234.212,277.739 235.5,275.5C 233.577,274.692 231.577,274.192 229.5,274C 228.177,273.184 227.511,272.017 227.5,270.5C 227.5,262.5 227.5,254.5 227.5,246.5 Z"/></g>
<g><path style="opacity:0.902" fill="#4a41cc" d="M 61.5,254.5 C 60.8592,255.482 60.1925,256.482 59.5,257.5C 60.5225,259.895 59.5225,260.895 56.5,260.5C 56.3334,279.836 56.5,299.17 57,318.5C 57.4186,317.328 58.0853,316.328 59,315.5C 59.1747,318.157 59.0081,320.824 58.5,323.5C 57.2101,322.942 56.3768,321.942 56,320.5C 55.3333,300.167 55.3333,279.833 56,259.5C 57.0757,256.921 58.909,255.254 61.5,254.5 Z"/></g>
<g><path style="opacity:0.961" fill="#4843bb" d="M 271.5,272.5 C 270.365,274.213 268.698,274.88 266.5,274.5C 267.635,272.787 269.302,272.12 271.5,272.5 Z"/></g>
<g><path style="opacity:1" fill="#4d43cf" d="M 248.5,279.5 C 245.072,286.692 241.405,293.692 237.5,300.5C 238.45,297.932 238.45,295.432 237.5,293C 242.279,290.034 242.612,286.7 238.5,283C 240.425,283.135 242.425,283.302 244.5,283.5C 244.488,280.858 245.821,279.525 248.5,279.5 Z"/></g>
<g><path style="opacity:0.503" fill="#5249c3" d="M 309.5,286.5 C 309.833,286.5 310.167,286.5 310.5,286.5C 330.5,286.5 350.5,286.5 370.5,286.5C 370.232,288.099 370.566,289.432 371.5,290.5C 371.5,291.167 371.5,291.833 371.5,292.5C 370.067,291.167 368.733,289.667 367.5,288C 347.996,287.832 328.662,287.332 309.5,286.5 Z"/></g>
<g><path style="opacity:1" fill="#4e43d7" d="M 380.5,283.5 C 382.587,284.585 383.92,286.251 384.5,288.5C 383.542,288.047 382.708,287.381 382,286.5C 381.727,288.329 380.893,289.829 379.5,291C 380.624,291.249 381.624,291.749 382.5,292.5C 381.36,294.473 380.027,296.307 378.5,298C 379.899,298.595 381.232,298.428 382.5,297.5C 383.354,298.522 384.354,299.355 385.5,300C 384.5,300.833 383.5,301.667 382.5,302.5C 383.544,303.623 384.21,304.956 384.5,306.5C 382.482,309.888 381.482,313.554 381.5,317.5C 381.167,317.5 380.833,317.5 380.5,317.5C 379.9,313.484 380.9,309.984 383.5,307C 379.288,302.293 375.288,297.46 371.5,292.5C 371.5,291.833 371.5,291.167 371.5,290.5C 373.199,290.66 374.866,290.494 376.5,290C 376.818,287.958 376.985,285.791 377,283.5C 379.123,286.97 380.29,286.97 380.5,283.5 Z"/></g>
<g><path style="opacity:1" fill="#4f43e2" d="M 267.5,230.5 C 268.5,230.5 269.5,230.5 270.5,230.5C 271.79,231.058 272.623,232.058 273,233.5C 273.667,245.5 273.667,257.5 273,269.5C 272.487,270.527 271.987,271.527 271.5,272.5C 269.302,272.12 267.635,272.787 266.5,274.5C 261.125,274.172 255.792,274.505 250.5,275.5C 249.82,276.86 249.153,278.193 248.5,279.5C 245.821,279.525 244.488,280.858 244.5,283.5C 242.425,283.302 240.425,283.135 238.5,283C 242.612,286.7 242.279,290.034 237.5,293C 238.45,295.432 238.45,297.932 237.5,300.5C 241.193,300.932 244.36,302.599 247,305.5C 248.396,313.08 248.896,320.747 248.5,328.5C 263.5,328.5 278.5,328.5 293.5,328.5C 293.263,327.209 293.596,326.209 294.5,325.5C 295.756,325.539 296.756,325.039 297.5,324C 307.161,323.5 316.828,323.334 326.5,323.5C 326.461,324.756 326.961,325.756 328,326.5C 328.5,336.161 328.666,345.828 328.5,355.5C 327.942,356.79 326.942,357.623 325.5,358C 316.167,358.667 306.833,358.667 297.5,358C 296.584,357.722 295.918,357.222 295.5,356.5C 294.932,351.363 294.266,346.363 293.5,341.5C 287.5,341.5 281.5,341.5 275.5,341.5C 266.348,340.506 257.015,340.173 247.5,340.5C 247.5,345.167 247.5,349.833 247.5,354.5C 246.929,358.468 244.596,360.635 240.5,361C 225.092,361.816 209.759,361.649 194.5,360.5C 193.524,359.185 192.524,357.852 191.5,356.5C 190.334,339.843 190.167,323.177 191,306.5C 191.513,305.473 192.013,304.473 192.5,303.5C 192.842,302.662 193.508,302.328 194.5,302.5C 204.558,303.14 214.225,302.473 223.5,300.5C 225.992,294.182 228.992,288.182 232.5,282.5C 235.683,280.08 237.016,276.747 236.5,272.5C 233.606,272.958 231.106,272.291 229,270.5C 228.5,262.507 228.334,254.507 228.5,246.5C 228.227,244.549 228.893,243.049 230.5,242C 229.692,240.294 228.359,239.461 226.5,239.5C 226.5,240.833 226.5,242.167 226.5,243.5C 224.897,243.688 223.563,243.188 222.5,242C 223.548,238.544 225.881,237.044 229.5,237.5C 229.64,235.876 228.973,234.71 227.5,234C 228.793,233.51 230.127,233.343 231.5,233.5C 231.5,232.5 231.5,231.5 231.5,230.5C 243.5,230.5 255.5,230.5 267.5,230.5 Z"/></g>
<g><path style="opacity:0.78" fill="#544dcf" d="M 223.5,300.5 C 214.225,302.473 204.558,303.14 194.5,302.5C 204.068,301.81 213.735,301.143 223.5,300.5 Z"/></g>
<g><path style="opacity:1" fill="#4f43e3" d="M 384.5,288.5 C 388.833,293.167 393.167,297.833 397.5,302.5C 417.473,304.488 437.806,305.155 458.5,304.5C 458.833,304.5 459.167,304.5 459.5,304.5C 459.738,306.404 460.738,307.738 462.5,308.5C 463.222,308.918 463.722,309.584 464,310.5C 464.667,333.5 464.667,356.5 464,379.5C 462.514,383.498 459.68,385.998 455.5,387C 433.124,387.822 410.79,387.656 388.5,386.5C 386.479,387.855 384.812,389.521 383.5,391.5C 380.52,391.759 378.687,390.426 378,387.5C 377.517,388.448 377.351,389.448 377.5,390.5C 376.5,390.5 375.5,390.5 374.5,390.5C 373.746,387.744 373.746,385.078 374.5,382.5C 375.781,379.553 377.781,377.219 380.5,375.5C 381.222,375.082 381.722,374.416 382,373.5C 382.808,354.79 382.641,336.123 381.5,317.5C 381.482,313.554 382.482,309.888 384.5,306.5C 384.21,304.956 383.544,303.623 382.5,302.5C 383.5,301.667 384.5,300.833 385.5,300C 384.354,299.355 383.354,298.522 382.5,297.5C 381.232,298.428 379.899,298.595 378.5,298C 380.027,296.307 381.36,294.473 382.5,292.5C 381.624,291.749 380.624,291.249 379.5,291C 380.893,289.829 381.727,288.329 382,286.5C 382.708,287.381 383.542,288.047 384.5,288.5 Z"/></g>
<g><path style="opacity:0.973" fill="#5045c2" d="M 397.5,302.5 C 416.836,302.333 436.17,302.5 455.5,303C 456.737,303.232 457.737,303.732 458.5,304.5C 437.806,305.155 417.473,304.488 397.5,302.5 Z"/></g>
<g><path style="opacity:0.776" fill="#4d45af" d="M 459.5,304.5 C 461.262,305.262 462.262,306.596 462.5,308.5C 460.738,307.738 459.738,306.404 459.5,304.5 Z"/></g>
<g><path style="opacity:0.98" fill="#5046c4" d="M 192.5,303.5 C 192.013,304.473 191.513,305.473 191,306.5C 190.167,323.177 190.334,339.843 191.5,356.5C 192.524,357.852 193.524,359.185 194.5,360.5C 191.909,359.746 190.076,358.079 189,355.5C 188.333,339.167 188.333,322.833 189,306.5C 189.759,304.937 190.926,303.937 192.5,303.5 Z"/></g>
<g><path style="opacity:0.494" fill="#544cae" d="M 326.5,323.5 C 316.828,323.334 307.161,323.5 297.5,324C 296.756,325.039 295.756,325.539 294.5,325.5C 294.953,324.542 295.619,323.708 296.5,323C 306.675,322.175 316.675,322.342 326.5,323.5 Z"/></g>
<g><path style="opacity:1" fill="#544ac7" d="M 380.5,317.5 C 380.833,317.5 381.167,317.5 381.5,317.5C 382.641,336.123 382.808,354.79 382,373.5C 381.722,374.416 381.222,375.082 380.5,375.5C 380.5,356.167 380.5,336.833 380.5,317.5 Z"/></g>
<g><path style="opacity:0.436" fill="#524bc2" d="M 326.5,323.5 C 327.458,323.953 328.292,324.619 329,325.5C 329.825,335.675 329.658,345.675 328.5,355.5C 328.666,345.828 328.5,336.161 328,326.5C 326.961,325.756 326.461,324.756 326.5,323.5 Z"/></g>
<g><path style="opacity:0.538" fill="#544bbe" d="M 275.5,341.5 C 266.5,341.5 257.5,341.5 248.5,341.5C 248.818,346.032 248.485,350.366 247.5,354.5C 247.5,349.833 247.5,345.167 247.5,340.5C 257.015,340.173 266.348,340.506 275.5,341.5 Z"/></g>
<g><path style="opacity:0.42" fill="#5247c4" d="M 293.5,341.5 C 294.266,346.363 294.932,351.363 295.5,356.5C 294.883,356.389 294.383,356.056 294,355.5C 293.501,350.845 293.334,346.179 293.5,341.5 Z"/></g>
<g><path style="opacity:1" fill="#4f43d9" d="M 374.5,382.5 C 373.746,385.078 373.746,387.744 374.5,390.5C 375.5,390.5 376.5,390.5 377.5,390.5C 377.351,389.448 377.517,388.448 378,387.5C 378.687,390.426 380.52,391.759 383.5,391.5C 375.84,400.493 367.84,409.16 359.5,417.5C 359.551,415.43 358.885,413.597 357.5,412C 357.833,411.5 358.167,411 358.5,410.5C 360.167,411.833 361.833,411.833 363.5,410.5C 364.221,408.314 364.887,406.147 365.5,404C 363.054,402.517 363.388,401.351 366.5,400.5C 368.323,401.747 370.323,402.414 372.5,402.5C 371.472,399.436 370.138,396.436 368.5,393.5C 367.274,392.637 365.94,392.637 364.5,393.5C 367.123,389.209 370.456,385.543 374.5,382.5 Z"/></g>
<g><path style="opacity:0.769" fill="#4c44b6" d="M 362.5,395.5 C 361.5,398.5 359.5,400.5 356.5,401.5C 358.167,399.167 360.167,397.167 362.5,395.5 Z"/></g>
<g><path style="opacity:0.971" fill="#5146c3" d="M 349.5,409.5 C 349.657,410.873 349.49,412.207 349,413.5C 336.576,412.345 324.076,412.179 311.5,413C 310.627,414.045 309.627,414.878 308.5,415.5C 308.916,413.248 310.249,411.748 312.5,411C 324.909,410.814 337.242,410.314 349.5,409.5 Z"/></g>
<g><path style="opacity:1" fill="#4f44e2" d="M 359.5,417.5 C 358.685,430.758 358.185,444.092 358,457.5C 357.167,458.333 356.333,459.167 355.5,460C 341.26,461.632 326.927,461.965 312.5,461C 309.898,460.065 308.398,458.232 308,455.5C 307.187,442.092 307.353,428.758 308.5,415.5C 309.627,414.878 310.627,414.045 311.5,413C 324.076,412.179 336.576,412.345 349,413.5C 349.49,412.207 349.657,410.873 349.5,409.5C 351.833,406.833 354.167,404.167 356.5,401.5C 359.5,400.5 361.5,398.5 362.5,395.5C 362.833,394.5 363.5,393.833 364.5,393.5C 365.94,392.637 367.274,392.637 368.5,393.5C 370.138,396.436 371.472,399.436 372.5,402.5C 370.323,402.414 368.323,401.747 366.5,400.5C 363.388,401.351 363.054,402.517 365.5,404C 364.887,406.147 364.221,408.314 363.5,410.5C 361.833,411.833 360.167,411.833 358.5,410.5C 358.167,411 357.833,411.5 357.5,412C 358.885,413.597 359.551,415.43 359.5,417.5 Z"/></g>
</svg>
