<?xml version="1.0" encoding="UTF-8" standalone="no"?>
<!DOCTYPE svg PUBLIC "-//W3C//DTD SVG 1.1//EN" "http://www.w3.org/Graphics/SVG/1.1/DTD/svg11.dtd">
<svg xmlns="http://www.w3.org/2000/svg" xmlns:xlink="http://www.w3.org/1999/xlink" version="1.1" width="1041.6666pt" height="1041.6666pt" viewBox="0 0 1041.6666 1041.6666">
<g enable-background="new">
<clipPath id="cp0">
<path transform="matrix(.6666666,0,0,.6666666,0,0)" d="M 0 0 L 1562.5 0 L 1562.5 1562.5 L 0 1562.5 Z " fill-rule="evenodd"/>
</clipPath>
<g clip-path="url(#cp0)">
<path transform="matrix(2.0833333,0,0,2.0833333,0,0)" d="M 0 0 L 500 0 L 500 500 L 0 500 Z " fill="#ffffff"/>
</g>
<clipPath id="cp1">
<path transform="matrix(.6666666,0,0,.6666666,0,0)" d="M 0 0 L 1562.5 0 L 1562.5 1562.5 L 0 1562.5 Z " fill-rule="evenodd"/>
</clipPath>
<g clip-path="url(#cp1)">
<g id="Layer-1" data-name="Div">
<path transform="matrix(2.0833333,0,0,2.0833333,0,0)" d="M 0 0 L 500 0 L 500 500 L 0 500 Z " fill="#ffffff"/>
</g>
<clipPath id="cp2">
<path transform="matrix(.6666666,0,0,.6666666,0,0)" d="M 35.637598 121.04411 L 1526.2626 121.04411 L 1526.2626 1442.9191 L 35.637598 1442.9191 Z " fill-rule="evenodd"/>
</clipPath>
<g clip-path="url(#cp2)">
</g>
<path transform="matrix(1.8732628,0,0,1.8732628,23.758399,80.99066)" d="M 217.52 198.89 L 241.43001 215.22 C 242.66 212.98 245.04001 211.46 247.77 211.46 L 284.23 211.46 C 288.2 211.46 291.45 214.71 291.45 218.68001 L 291.45 255.15001 C 291.45 259.12 288.2 262.36003 284.23 262.36003 L 266.56 262.36003 L 251.20999 292.63 L 254.28 292.63 C 259.38999 292.63 263.56 296.80003 263.56 301.91 L 263.56 322.18 L 315.06 323.02 L 315.06 321.75999 C 315.06 318.74 317.53 316.25999 320.56 316.25999 L 348.34 316.25999 C 351.37 316.25999 353.84 318.72999 353.84 321.75999 L 353.84 349.55 C 353.84 352.56999 351.37 355.05 348.34 355.05 L 320.56 355.05 C 317.53 355.05 315.06 352.58 315.06 349.55 L 315.06 336.72 L 263.56 335.88 L 263.56 348.81 C 263.56 353.91999 259.38999 358.09 254.28 358.09 L 207.39 358.09 C 202.28 358.09 198.11 353.91999 198.11 348.81 L 198.11 301.91999 C 198.11 296.81 202.28 292.63999 207.39 292.63999 L 235.84 292.63999 L 251.19 262.37 L 247.77 262.37 C 243.79001 262.37 240.55 259.13 240.55 255.15999 L 240.55 231.22998 L 216.13 214.54999 C 214.17 218.12999 210.37001 220.56999 206.02 220.56999 L 147.86 220.56999 C 141.52 220.56999 136.35 215.39 136.35 209.04999 L 136.35 150.88999 C 136.35 144.54999 141.53 139.37999 147.86 139.37999 L 206.02 139.37999 C 212.36 139.37999 217.53 144.55998 217.53 150.88999 L 217.53 198.89 L 217.52 198.89 Z M 89.98 127.24 L 58.170007 167.34 L 58.170007 206.84999 C 58.170007 208.77999 57.500009 210.54999 56.380006 211.95999 L 79.28001 239.32999 L 119.36001 239.32999 C 125.70001 239.32999 130.87001 244.50998 130.87001 250.84999 L 130.87001 309.00999 C 130.87001 315.34999 125.69001 320.52998 119.36001 320.52998 L 61.2 320.52998 C 54.86 320.52998 49.690004 315.34999 49.690004 309.00999 L 49.690004 250.84998 C 49.690004 244.50998 54.870004 239.32997 61.200006 239.32997 L 61.390005 239.32997 L 41.11 215.1 L 8.24 215.1 C 3.71 215.1 0 211.39 0 206.86 L 0 165.18 C 0 160.65 3.71 156.93999 8.24 156.93999 L 48.909997 156.93999 L 72.77 126.859989 C 67.86 125.54999 64.21999 121.04999 64.21999 115.73998 L 64.21999 57.57 C 64.21999 51.23 69.399997 46.05 75.729999 46.05 L 133.89 46.05 C 140.23 46.05 145.4 51.23 145.4 57.57 L 145.4 115.729999 C 145.4 122.06999 140.22 127.24 133.89 127.24 L 89.98 127.24 Z M 375.77 413.84 L 411.44 374.41 L 411.43 373.94 L 411.43 307.1 C 411.43 303.53 412.86 300.29 415.16999 297.91 L 396.38999 276.13 C 395.75999 276.24 395.09999 276.29 394.43998 276.29 L 336.26997 276.29 C 329.92997 276.29 324.75996 271.11003 324.75996 264.77003 L 324.75996 206.61002 C 324.75996 200.27002 329.93995 195.10002 336.26997 195.10002 L 394.43995 195.10002 C 400.77995 195.10002 405.94996 200.28002 405.94996 206.61002 L 405.94996 264.77003 C 405.94996 265.24003 405.91996 265.7 405.86997 266.16004 L 429.75996 293.88005 L 491.46995 293.88005 C 498.74995 293.88005 504.68995 299.83006 504.68995 307.10005 L 504.68995 373.93006 C 504.68995 381.20005 498.73994 387.15007 491.46995 387.15007 L 424.63996 387.15007 C 422.76997 387.15007 420.96995 386.75007 419.34996 386.04008 L 386.54997 422.30009 L 386.54997 461.68009 C 386.54997 466.0301 382.98997 469.58009 378.64997 469.58009 L 338.70997 469.58009 C 334.35997 469.58009 330.80998 466.0301 330.80998 461.68009 L 330.80998 421.74009 C 330.80998 417.39009 334.36997 413.8401 338.70997 413.8401 L 375.77 413.8401 L 375.77 413.84 Z M 486.05 187.23 L 464.34999 145.39 L 435.56999 145.39 C 430.93998 145.39 427.15998 141.61 427.15998 136.98 L 427.15998 94.46 C 427.15998 89.83 430.93998 86.05 435.56999 86.05 L 478.08998 86.05 C 482.71998 86.05 486.49998 89.83 486.49998 94.46001 L 486.49998 136.98001 C 486.49998 141.06002 483.56999 144.48001 479.69999 145.24 L 501.47999 187.23001 L 522.32998 187.23001 C 526.95999 187.23001 530.7399 191.01001 530.7399 195.64002 L 530.7399 238.16002 C 530.7399 242.79003 526.9599 246.57003 522.32998 246.57003 L 479.80998 246.57003 C 475.17997 246.57003 471.39997 242.79003 471.39997 238.16002 L 471.39997 195.64002 C 471.39997 191.01001 475.17997 187.23001 479.80998 187.23001 L 486.05 187.23001 L 486.05 187.23 Z M 216.31 0 L 274.47 0 C 280.81 0 285.98 5.18 285.98 11.51 L 285.98 69.68 C 285.98 76.020008 280.80003 81.19 274.47 81.19 L 263.62 81.19 L 275.71 110.9 L 306.03 110.9 C 306.58 110.9 307.1 110.950008 307.61 111.05 L 325.91999 95.590007 C 323.71 93.490009 322.33 90.53001 322.33 87.25 L 322.33 29.09 C 322.33 22.75 327.50999 17.57 333.84 17.57 L 392.01 17.57 C 398.35 17.57 403.52003 22.75 403.52003 29.09 L 403.52003 87.25 C 403.52003 93.59 398.34004 98.76 392.01 98.76 L 343.41 98.76 L 314.43 123.23 L 314.43 161.83 C 314.43 166.46 310.65 170.24 306.02 170.24 L 263.5 170.24 C 258.87 170.24 255.09 166.46 255.09 161.83 L 255.09 119.31 C 255.09 115.53 257.6 112.32 261.04 111.259998 L 248.79001 81.189998 L 216.3 81.189998 C 209.96 81.189998 204.78 76.009998 204.78 69.67999 L 204.78 11.51 C 204.8 5.18 209.98 0 216.31 0 Z " fill="#5044e5" fill-rule="evenodd"/>
</g>
<g id="Layer-1" data-name="Image">
<path transform="matrix(2.7777777,0,0,-2.7777777,0,1063.9999)" d="M 8.553023 37.090578 L 366.44697 37.090578 L 366.44697 353.9894 L 8.553023 353.9894 Z " fill-opacity="0"/>
</g>
</g>
</svg>
